<?xml version="1.0" standalone="no"?><!DOCTYPE svg PUBLIC "-//W3C//DTD SVG 1.1//EN" "http://www.w3.org/Graphics/SVG/1.1/DTD/svg11.dtd"><svg t="1570516575534" class="icon" viewBox="0 0 1149 1024" version="1.1" xmlns="http://www.w3.org/2000/svg" p-id="6700" xmlns:xlink="http://www.w3.org/1999/xlink" width="224.4140625" height="200"><defs><style type="text/css"></style></defs><path d="M1073.95122 830.988488C1073.95122 891.079805 1025.048976 939.982049 964.957659 939.982049L183.895415 939.982049C123.804098 939.982049 74.926829 891.079805 74.926829 830.988488L74.926829 272.084293C74.926829 211.992976 123.804098 163.115707 183.895415 163.115707L262.643512 163.115707 262.643512 220.78439C262.643512 248.382439 284.996683 270.73561 312.594732 270.73561 340.167805 270.73561 362.545951 248.382439 362.545951 220.78439L362.545951 163.115707 775.192976 163.115707 775.192976 220.78439C775.192976 248.382439 797.571122 270.73561 825.144195 270.73561 852.742244 270.73561 875.095415 248.382439 875.095415 220.78439L875.095415 163.115707 964.957659 163.115707C1025.048976 163.115707 1073.95122 211.992976 1073.95122 272.084293L1073.95122 830.988488ZM964.957659 88.188878 875.095415 88.188878 875.095415 49.95122C875.095415 22.353171 852.742244 0 825.144195 0 797.571122 0 775.192976 22.353171 775.192976 49.95122L775.192976 88.188878 362.545951 88.188878 362.545951 49.95122C362.545951 22.353171 340.167805 0 312.594732 0 284.996683 0 262.643512 22.353171 262.643512 49.95122L262.643512 88.188878 183.895415 88.188878C82.494439 88.188878 0 170.683317 0 272.084293L0 830.988488C0 932.414439 82.494439 1014.908878 183.895415 1014.908878L964.957659 1014.908878C1066.358634 1014.908878 1148.878049 932.414439 1148.878049 830.988488L1148.878049 272.084293C1148.878049 170.683317 1066.358634 88.188878 964.957659 88.188878L964.957659 88.188878ZM920.730849 407.866693 228.082263 407.866693C207.377483 407.866693 190.618849 424.650302 190.618849 445.330107 190.618849 466.009912 207.377483 482.793522 228.082263 482.793522L920.730849 482.793522C941.410654 482.793522 958.194263 466.009912 958.194263 445.330107 958.194263 424.650302 941.410654 407.866693 920.730849 407.866693ZM920.730849 569.453893 228.082263 569.453893C207.377483 569.453893 190.618849 586.237502 190.618849 606.917307 190.618849 627.597112 207.377483 644.380722 228.082263 644.380722L920.730849 644.380722C941.410654 644.380722 958.194263 627.597112 958.194263 606.917307 958.194263 586.237502 941.410654 569.453893 920.730849 569.453893ZM625.414244 726.403122 228.12722 726.403122C207.447415 726.403122 190.663805 743.186732 190.663805 763.866537 190.663805 784.546341 207.447415 801.329951 228.12722 801.329951L625.414244 801.329951C646.094049 801.329951 662.877659 784.546341 662.877659 763.866537 662.877659 743.186732 646.094049 726.403122 625.414244 726.403122Z" p-id="6701"></path></svg>