<?xml version="1.0" standalone="no"?><!DOCTYPE svg PUBLIC "-//W3C//DTD SVG 1.1//EN" "http://www.w3.org/Graphics/SVG/1.1/DTD/svg11.dtd"><svg t="1570517828281" class="icon" viewBox="0 0 1092 1024" version="1.1" xmlns="http://www.w3.org/2000/svg" p-id="20003" xmlns:xlink="http://www.w3.org/1999/xlink" width="213.28125" height="200"><defs><style type="text/css"></style></defs><path d="M1058.133333 955.733333H68.266667V34.133333C68.266667 13.653333 54.613333 0 34.133333 0S0 13.653333 0 34.133333v955.733334c0 20.48 13.653333 34.133333 34.133333 34.133333h1024c20.48 0 34.133333-13.653333 34.133334-34.133333s-13.653333-34.133333-34.133334-34.133334z" p-id="20004"></path><path d="M204.8 716.8v136.533333c0 20.48 13.653333 34.133333 34.133333 34.133334s34.133333-13.653333 34.133334-34.133334v-136.533333c0-20.48-13.653333-34.133333-34.133334-34.133333s-34.133333 13.653333-34.133333 34.133333zM409.6 580.266667v273.066666c0 20.48 13.653333 34.133333 34.133333 34.133334s34.133333-13.653333 34.133334-34.133334v-273.066666c0-20.48-13.653333-34.133333-34.133334-34.133334s-34.133333 13.653333-34.133333 34.133334zM614.4 512v341.333333c0 20.48 13.653333 34.133333 34.133333 34.133334s34.133333-13.653333 34.133334-34.133334v-341.333333c0-20.48-13.653333-34.133333-34.133334-34.133333s-34.133333 13.653333-34.133333 34.133333zM819.2 443.733333v409.6c0 20.48 13.653333 34.133333 34.133333 34.133334s34.133333-13.653333 34.133334-34.133334v-409.6c0-20.48-13.653333-34.133333-34.133334-34.133333s-34.133333 13.653333-34.133333 34.133333zM204.8 580.266667c6.826667 0 13.653333 0 20.48-6.826667l266.24-197.973333H682.666667c6.826667 0 20.48-6.826667 27.306666-6.826667L887.466667 184.32v122.88c0 20.48 13.653333 34.133333 34.133333 34.133333s34.133333-13.653333 34.133333-34.133333v-204.8c0-20.48-13.653333-34.133333-34.133333-34.133333h-204.8c-20.48 0-34.133333 13.653333-34.133333 34.133333s13.653333 34.133333 34.133333 34.133333h122.88L669.013333 307.2H477.866667c-6.826667 0-13.653333 0-20.48 6.826667l-273.066667 204.8c-13.653333 13.653333-20.48 34.133333-6.826667 47.786666 6.826667 6.826667 13.653333 13.653333 27.306667 13.653334z" p-id="20005"></path></svg>